<?xml version="1.0" encoding="utf-8"?>
<svg width="500" zoomAndPan="magnify" viewBox="0 0 375 374.999991" height="500" preserveAspectRatio="xMidYMid meet" version="1.0" xmlns="http://www.w3.org/2000/svg">
  <defs>
    <g>
      <g id="id1"/>
    </g>
  </defs>
  <g>
    <g>
      <g fill="rgb(0%, 0%, 0%)" fill-opacity="1">
        <g transform="translate(62.228139, 315.746916)">
          <g>
            <path d="M 249.813 -22.672 C 252.832 -18.953 253.18 -14.77 250.859 -10.125 C 248.523 -5.695 245.136 -3.484 240.254 -3.484 L 206.891 -3.484 C 202.473 -3.484 199.102 -5.227 196.781 -8.719 L 113.391 -128.734 L 79.203 -96.641 L 79.203 -15.703 C 79.203 -12.441 77.977 -9.586 75.531 -7.141 C 73.094 -4.703 70.242 -3.484 66.984 -3.484 L 40.469 -3.484 C 37.219 -3.484 34.367 -4.703 31.922 -7.141 C 29.484 -9.586 28.266 -12.441 28.266 -15.703 L 28.266 -112.687 C 28.266 -116.414 29.539 -119.32 32.094 -121.406 L 177.938 -258.172 C 180.258 -260.504 183.051 -261.672 186.313 -261.672 L 223.984 -261.672 C 226.547 -261.672 228.813 -260.973 230.781 -259.578 C 232.758 -258.18 234.219 -256.32 235.156 -254 C 237.25 -248.875 236.316 -244.336 232.359 -240.391 L 150.719 -163.625 L 249.813 -22.672 Z M 40.469 -172.703 C 37.219 -172.703 34.367 -173.863 31.922 -176.187 C 29.484 -178.508 28.266 -181.414 28.266 -184.906 L 28.266 -249.453 C 28.266 -252.711 29.484 -255.562 31.922 -258 C 34.367 -260.445 37.219 -261.672 40.469 -261.672 L 66.984 -261.672 C 70.242 -261.672 73.094 -260.445 75.531 -258 C 77.977 -255.562 79.203 -252.711 79.203 -249.453 L 79.203 -184.906 C 79.203 -181.414 77.977 -178.508 75.531 -176.187 C 73.094 -173.863 70.242 -172.703 66.984 -172.703 L 40.469 -172.703 Z M 40.469 -172.703"/>
          </g>
        </g>
      </g>
      <g fill="rgb(0%, 0%, 0%)" fill-opacity="1">
        <g transform="translate(62.228139, 315.746916)">
          <g>
            <path d="M 66.984 -261.672 C 70.242 -261.672 73.094 -260.445 75.531 -258 C 77.977 -255.562 79.203 -252.711 79.203 -249.453 L 79.203 -15.703 C 79.203 -12.441 77.977 -9.586 75.531 -7.141 C 73.094 -4.703 70.242 -3.484 66.984 -3.484 L 40.469 -3.484 C 37.219 -3.484 34.367 -4.703 31.922 -7.141 C 29.484 -9.586 28.266 -12.441 28.266 -15.703 L 28.266 -249.453 C 28.266 -252.711 29.484 -255.562 31.922 -258 C 34.367 -260.445 37.219 -261.672 40.469 -261.672 L 66.984 -261.672 Z M 194.328 -53.375 C 197.816 -53.375 200.723 -52.148 203.047 -49.703 C 205.379 -47.266 206.547 -44.422 206.547 -41.172 L 206.547 -15.703 C 206.547 -12.441 219.862 -6.551 215.427 -4.444 C 212.721 -3.158 197.816 -3.484 194.328 -3.484 L 113.047 -3.484 C 109.555 -3.484 106.645 -4.703 104.313 -7.141 C 101.988 -9.586 100.828 -12.441 100.828 -15.703 L 100.828 -41.172 C 100.828 -44.422 101.988 -47.266 104.313 -49.703 C 106.645 -52.148 109.555 -53.375 113.047 -53.375 L 194.328 -53.375 Z M 194.328 -53.375"/>
          </g>
        </g>
      </g>
    </g>
  </g>
</svg>