<?xml version="1.0" standalone="no"?>
<!DOCTYPE svg PUBLIC "-//W3C//DTD SVG 20010904//EN"
 "http://www.w3.org/TR/2001/REC-SVG-20010904/DTD/svg10.dtd">
<svg version="1.0" xmlns="http://www.w3.org/2000/svg"
 width="700.000000pt" height="700.000000pt" viewBox="0 0 700.000000 700.000000"
 preserveAspectRatio="xMidYMid meet">
<metadata>
Created by potrace 1.14, written by Peter Selinger 2001-2017
</metadata>
<g transform="translate(0.000000,700.000000) scale(0.100000,-0.100000)"
fill="#000000" stroke="none">
<path d="M1834 5976 c-47 -21 -105 -77 -125 -121 -18 -38 -19 -135 -19 -2274
l0 -2235 21 -43 c25 -53 86 -106 138 -121 52 -16 585 -16 632 -1 51 18 111 71
137 121 l22 45 0 781 0 780 58 55 c31 31 75 72 97 92 22 21 99 93 170 160 72
67 146 137 165 155 19 17 60 56 91 85 l56 54 33 -47 c64 -90 125 -177 160
-228 32 -47 296 -427 492 -708 42 -61 106 -154 143 -206 36 -52 83 -120 105
-150 21 -30 39 -58 40 -61 0 -4 -231 -6 -512 -7 -370 0 -521 -3 -543 -12 -49
-19 -93 -58 -122 -107 l-27 -47 -2 -281 c-1 -209 3 -292 13 -327 18 -62 88
-132 148 -147 60 -15 2454 -15 2508 0 90 25 163 136 155 236 -4 46 -14 68 -74
156 -38 56 -71 104 -74 107 -3 3 -53 72 -110 154 -58 83 -131 186 -162 230
-31 45 -78 112 -105 151 -26 38 -100 143 -163 232 -63 89 -135 192 -160 228
-25 37 -62 90 -83 118 -21 29 -79 111 -129 182 -79 113 -262 373 -383 545 -21
30 -128 182 -237 337 -109 155 -200 288 -203 295 -4 9 15 34 47 63 29 26 118
109 198 185 80 75 157 148 171 161 15 13 84 79 155 145 71 67 145 136 164 154
19 18 96 90 170 160 74 71 153 145 175 165 438 409 480 452 494 500 17 61 13
109 -13 167 -25 58 -51 85 -108 117 -36 19 -53 20 -435 21 -423 0 -441 -1
-498 -48 -27 -22 -167 -152 -286 -264 -51 -48 -285 -268 -340 -320 -45 -42
-281 -263 -324 -303 -40 -37 -145 -137 -251 -235 -44 -41 -144 -136 -224 -210
-79 -74 -180 -169 -224 -211 -45 -41 -110 -103 -146 -137 l-65 -61 -5 819 -5
818 -30 43 c-17 24 -50 57 -74 74 l-43 30 -311 2 c-246 2 -319 0 -343 -11z"/>
</g>
</svg>
